<?xml version="1.0"?>
<svg xmlns="http://www.w3.org/2000/svg" xmlns:lc="https://librecad.org" xmlns:xlink="http://www.w3.org/1999/xlink" width="48.1mm" height="10.15mm" viewBox="0 0 48.1 10.15">
    <g lc:layername="0" lc:is_locked="false" lc:is_construction="false" fill="none" stroke="black" stroke-width="1">
        <circle cx="48.1" cy="10" r="0.1"/>
    </g>
    <g lc:layername="TK1" lc:is_locked="false" lc:is_construction="false" fill="none" stroke="black" stroke-width="1">
        <line x1="26.1" y1="2.5" x2="26.1" y2="4"/>
        <line x1="25.1" y1="2.5" x2="26.1" y2="2.5"/>
        <line x1="24.3" y1="3.3" x2="25.1" y2="2.5"/>
        <line x1="24.3" y1="8.4" x2="24.3" y2="3.3"/>
        <line x1="22.3" y1="8.4" x2="24.3" y2="8.4"/>
        <line x1="22.3" y1="2.1" x2="22.3" y2="8.4"/>
        <line x1="20.3" y1="2.1" x2="22.3" y2="2.1"/>
        <line x1="20.3" y1="5.1" x2="20.3" y2="2.1"/>
        <path d="M20.3,5.1 A0.4,0.4 0 1,1 20.3,5.9 "/>
        <line x1="20.3" y1="8" x2="20.3" y2="5.9"/>
        <line x1="18.4" y1="8" x2="20.3" y2="8"/>
        <line x1="18.4" y1="3.6" x2="18.4" y2="8"/>
        <line x1="16.9" y1="2.1" x2="18.4" y2="3.6"/>
        <line x1="15.4" y1="2.1" x2="16.9" y2="2.1"/>
        <line x1="15.4" y1="1" x2="15.4" y2="2.1"/>
        <line x1="16.4" y1="1" x2="15.4" y2="1"/>
        <line x1="18.4" y1="0.82502268" x2="16.4" y2="1"/>
        <line x1="18.4" y1="0" x2="18.4" y2="0.82502268"/>
        <line x1="14.55" y1="0" x2="18.4" y2="0"/>
        <path d="M14.15,0.4 A0.4,0.4 0 0,1 14.55,0 "/>
        <line x1="14.15" y1="2.15" x2="14.15" y2="0.4"/>
        <path d="M14.15,2.15 A0.35,0.35 0 1,1 13.45,2.15 "/>
        <line x1="13.45" y1="0.4" x2="13.45" y2="2.15"/>
        <path d="M13.05,0 A0.4,0.4 0 0,1 13.45,0.4 "/>
        <line x1="0" y1="0" x2="13.05" y2="0"/>
        <line x1="0" y1="1.5" x2="0" y2="0"/>
        <line x1="3" y1="1.5" x2="0" y2="1.5"/>
        <line x1="3" y1="3.25" x2="3" y2="1.5"/>
        <line x1="7" y1="3.25" x2="3" y2="3.25"/>
        <line x1="7" y1="2.25" x2="7" y2="3.25"/>
        <line x1="10" y1="2.25" x2="7" y2="2.25"/>
        <line x1="10" y1="3.25" x2="10" y2="2.25"/>
        <line x1="12" y1="3.25" x2="10" y2="3.25"/>
        <line x1="12" y1="6.55" x2="12" y2="3.25"/>
        <line x1="10" y1="6.55" x2="12" y2="6.55"/>
        <line x1="10" y1="7.55" x2="10" y2="6.55"/>
        <line x1="7" y1="7.55" x2="10" y2="7.55"/>
        <line x1="7" y1="6.55" x2="7" y2="7.55"/>
        <line x1="3.7" y1="7.55" x2="3" y2="7.55"/>
        <line x1="3.7" y1="7.7" x2="3.7" y2="7.55"/>
        <path d="M4.2,8.2 A0.5,0.5 0 0,1 3.7,7.7 "/>
        <line x1="5.85" y1="8.2" x2="4.2" y2="8.2"/>
        <path d="M5.85,8.2 A0.35,0.35 0 1,1 5.85,8.9 "/>
        <line x1="4.1769696" y1="8.9" x2="5.85" y2="8.9"/>
        <path d="M3.7,9.55 A0.5,0.5 0 0,1 4.1769696,8.9 "/>
        <line x1="4.7" y1="10.15" x2="3" y2="10.15"/>
        <line x1="4.85" y1="10" x2="4.7" y2="10.15"/>
        <line x1="13.12153903" y1="10" x2="4.85" y2="10"/>
        <line x1="14.17988971" y1="8.16688285" x2="13.12153903" y2="10"/>
        <path d="M14.12310564,7.90426013 A0.2,0.2 0 0,1 14.17988971,8.16688285 "/>
        <path d="M14.12310564,7.90426013 A1.85,1.85 0 0,1 14.2,4.84356176 "/>
        <line x1="14.2" y1="4.2" x2="14.2" y2="4.84356176"/>
        <line x1="16.2" y1="4.2" x2="14.2" y2="4.2"/>
        <line x1="16.2" y1="4.84356176" x2="16.2" y2="4.2"/>
        <path d="M16.2,4.84356176 A1.85,1.85 0 0,1 16.27689435,7.90426013 "/>
        <path d="M16.22011028,8.16688285 A0.2,0.2 0 0,1 16.27689435,7.90426013 "/>
        <line x1="17.27846097" y1="10" x2="16.22011029" y2="8.16688285"/>
        <line x1="26.45" y1="10" x2="17.27846097" y2="10"/>
        <path d="M27.45,9 A1,1 0 0,1 26.45,10 "/>
        <line x1="27.45" y1="8.5" x2="27.45" y2="9"/>
        <path d="M27.15,8.2 A0.3,0.3 0 0,1 27.45,8.5 "/>
        <line x1="26" y1="8.2" x2="27.15" y2="8.2"/>
        <line x1="26" y1="6" x2="26" y2="8.2"/>
        <line x1="28.95" y1="6" x2="26" y2="6"/>
        <line x1="28.95" y1="4" x2="28.95" y2="6"/>
        <line x1="26.1" y1="4" x2="28.95" y2="4"/>
        <line x1="3" y1="10.15" x2="3" y2="9.55"/>
        <line x1="3" y1="9.55" x2="3.7" y2="9.55"/>
        <line x1="3" y1="7.55" x2="3" y2="6.55"/>
        <line x1="3" y1="6.55" x2="7" y2="6.55"/>
        <line x1="35.4" y1="8.2" x2="35.4" y2="6"/>
        <line x1="34.25" y1="8.2" x2="35.4" y2="8.2"/>
        <path d="M33.95,8.5 A0.3,0.3 0 0,1 34.25,8.2 "/>
        <line x1="33.95" y1="9" x2="33.95" y2="8.5"/>
        <path d="M34.95,10 A1,1 0 0,1 33.95,9 "/>
        <line x1="48.1" y1="10" x2="34.95" y2="10"/>
        <line x1="48.1" y1="2.8" x2="48.1" y2="10"/>
        <line x1="47.27846097" y1="2.8" x2="48.1" y2="2.8"/>
        <line x1="46.22011029" y1="4.63311715" x2="47.27846097" y2="2.8"/>
        <path d="M46.27689435,4.89573987 A0.2,0.2 0 0,1 46.22011029,4.63311715 "/>
        <path d="M46.27689435,4.89573987 A1.85,1.85 0 0,1 46.2,7.95643824 "/>
        <line x1="46.2" y1="8.6" x2="46.2" y2="7.95643824"/>
        <line x1="44.2" y1="8.6" x2="46.2" y2="8.6"/>
        <line x1="44.2" y1="7.95643824" x2="44.2" y2="8.6"/>
        <path d="M44.2,7.95643824 A1.85,1.85 0 0,1 44.12310564,4.89573987 "/>
        <path d="M44.17988971,4.63311715 A0.2,0.2 0 0,1 44.12310564,4.89573987 "/>
        <line x1="43.12153903" y1="2.8" x2="44.17988971" y2="4.63311715"/>
        <line x1="41.9" y1="2.8" x2="43.12153903" y2="2.8"/>
        <line x1="41.9" y1="8.4" x2="41.9" y2="2.8"/>
        <line x1="37.1" y1="8.4" x2="41.9" y2="8.4"/>
        <line x1="37.1" y1="2.5" x2="37.1" y2="8.4"/>
        <line x1="35.3" y1="2.5" x2="37.1" y2="2.5"/>
        <line x1="35.3" y1="4" x2="35.3" y2="2.5"/>
        <line x1="32.45" y1="6" x2="32.45" y2="4"/>
        <line x1="32.45" y1="4" x2="35.3" y2="4"/>
        <line x1="35.4" y1="6" x2="32.45" y2="6"/>
        <line x1="31.75" y1="4" x2="31.75" y2="6"/>
        <line x1="32.45" y1="4" x2="31.75" y2="4"/>
        <line x1="31.75" y1="6" x2="32.45" y2="6"/>
        <line x1="29.65" y1="4" x2="29.65" y2="6"/>
        <line x1="29.65" y1="4" x2="28.95" y2="4"/>
        <line x1="28.95" y1="6" x2="29.65" y2="6"/>
        <line x1="31.75" y1="4" x2="29.65" y2="4"/>
        <line x1="29.65" y1="6" x2="31.75" y2="6"/>
    </g>
</svg>
