<?xml version="1.0"?>
<svg xmlns="http://www.w3.org/2000/svg" xmlns:lc="https://librecad.org" xmlns:xlink="http://www.w3.org/1999/xlink" width="33.2mm" height="10mm" viewBox="0 0 33.2 10">
    <g lc:layername="TK1" lc:is_locked="false" lc:is_construction="false" fill="none" stroke="black" stroke-width="1">
        <line x1="23.05" y1="4.89999995" x2="26" y2="4.89999995"/>
        <line x1="26" y1="4.89999995" x2="26" y2="7.1"/>
        <line x1="26" y1="7.1" x2="24.85" y2="7.1"/>
        <path d="M24.55,7.4 A0.3,0.3 0 0,1 24.85,7.1 "/>
        <line x1="24.55" y1="7.4" x2="24.55" y2="7.9"/>
        <path d="M25.55,8.9 A1,1 0 0,1 24.55,7.9 "/>
        <line x1="33.2" y1="8.9" x2="33.2" y2="0.2"/>
        <line x1="33.2" y1="0.2" x2="31.2" y2="0.2"/>
        <line x1="31.2" y1="0.2" x2="31.2" y2="3.57011561"/>
        <path d="M31.29268293,3.73888481 A0.2,0.2 0 0,1 31.2,3.57011561 "/>
        <line x1="31.30000001" y1="6.85643824" x2="31.30000001" y2="7.5"/>
        <line x1="31.30000001" y1="7.5" x2="29.30000001" y2="7.5"/>
        <line x1="29.30000001" y1="7.5" x2="29.30000001" y2="6.85643824"/>
        <path d="M29.30000001,6.85643824 A1.85,1.85 0 0,1 29.22310565,3.79573987 "/>
        <path d="M29.27988972,3.53311715 A0.2,0.2 0 0,1 29.22310565,3.79573987 "/>
        <line x1="29.27988972" y1="3.53311715" x2="28.04833396" y2="1.4"/>
        <line x1="28.04833396" y1="1.4" x2="25.90000001" y2="1.4"/>
        <line x1="25.90000001" y1="1.4" x2="25.90000001" y2="2.89999995"/>
        <line x1="25.90000001" y1="2.89999995" x2="23.05" y2="2.89999995"/>
        <line x1="23.05" y1="2.89999995" x2="23.05" y2="4.89999995"/>
        <path d="M31.29268293,3.73888481 A1.85,1.85 0 0,1 31.30000001,6.85643824 "/>
        <line x1="25.55" y1="8.9" x2="33.2" y2="8.9"/>
        <line x1="22.35" y1="2.89999995" x2="22.35" y2="4.89999995"/>
        <line x1="23.05" y1="2.89999995" x2="22.35" y2="2.89999995"/>
        <line x1="22.35" y1="4.89999995" x2="23.05" y2="4.89999995"/>
        <line x1="15.1" y1="7.3" x2="13.2" y2="7.3"/>
        <line x1="13.2" y1="7.3" x2="13.2" y2="0.2"/>
        <line x1="13.2" y1="0.2" x2="11.2" y2="0.2"/>
        <line x1="11.2" y1="0.2" x2="11.2" y2="3.57011561"/>
        <path d="M11.29268293,3.73888482 A0.2,0.2 0 0,1 11.2,3.57011561 "/>
        <path d="M11.29268293,3.73888482 A1.85,1.85 0 0,1 11.3,6.85643824 "/>
        <line x1="11.3" y1="6.85643824" x2="11.3" y2="7.5"/>
        <line x1="11.3" y1="7.5" x2="9.3" y2="7.5"/>
        <line x1="9.3" y1="7.5" x2="9.3" y2="6.85643824"/>
        <path d="M9.3,6.85643824 A1.85,1.85 0 0,1 9.22310564,3.79573987 "/>
        <path d="M9.27988971,3.53311715 A0.2,0.2 0 0,1 9.22310564,3.79573987 "/>
        <line x1="9.27988971" y1="3.53311715" x2="7.24004357" y2="0"/>
        <line x1="7.24004357" y1="0" x2="0" y2="0"/>
        <line x1="0" y1="0" x2="0" y2="2.15"/>
        <line x1="0" y1="2.15" x2="1" y2="2.15"/>
        <line x1="1" y1="2.15" x2="1" y2="1.15"/>
        <line x1="1" y1="1.15" x2="4" y2="1.15"/>
        <line x1="4" y1="1.15" x2="4" y2="2.15"/>
        <line x1="4" y1="2.15" x2="6.3" y2="2.15"/>
        <line x1="6.3" y1="2.15" x2="6.3" y2="5.45"/>
        <line x1="6.3" y1="5.45" x2="4" y2="5.45"/>
        <line x1="4" y1="5.45" x2="4" y2="6.45"/>
        <line x1="4" y1="6.45" x2="1" y2="6.45"/>
        <line x1="1" y1="6.45" x2="1" y2="5.45"/>
        <line x1="1" y1="5.45" x2="0" y2="5.45"/>
        <line x1="0" y1="5.45" x2="0" y2="8.9"/>
        <line x1="0" y1="8.9" x2="17.05" y2="8.9"/>
        <path d="M18.05,7.9 A1,1 0 0,1 17.05,8.9 "/>
        <line x1="18.05" y1="7.9" x2="18.05" y2="7.4"/>
        <path d="M17.75,7.1 A0.3,0.3 0 0,1 18.05,7.4 "/>
        <line x1="17.75" y1="7.1" x2="16.6" y2="7.1"/>
        <line x1="19.55" y1="4.89999995" x2="19.55" y2="2.89999995"/>
        <line x1="15.9" y1="1.4" x2="15.1" y2="2.2"/>
        <line x1="15.1" y1="2.2" x2="15.1" y2="7.3"/>
        <line x1="16.7" y1="1.4" x2="15.9" y2="1.4"/>
        <line x1="16.6" y1="7.1" x2="16.6" y2="4.89999995"/>
        <line x1="16.7" y1="2.89999995" x2="16.7" y2="1.4"/>
        <line x1="19.55" y1="2.89999995" x2="16.7" y2="2.89999995"/>
        <line x1="16.6" y1="4.89999995" x2="19.55" y2="4.89999995"/>
        <line x1="20.25" y1="2.89999995" x2="20.25" y2="4.89999995"/>
        <line x1="20.25" y1="2.89999995" x2="19.55" y2="2.89999995"/>
        <line x1="19.55" y1="4.89999995" x2="20.25" y2="4.89999995"/>
        <line x1="22.35" y1="2.89999995" x2="20.25" y2="2.89999995"/>
        <line x1="20.25" y1="4.89999995" x2="22.35" y2="4.89999995"/>
    </g>
</svg>
